<svg xmlns="http://www.w3.org/2000/svg" viewBox="0 0 2291.38 542.09"><defs><style>.cls-1{fill:#fff;}</style></defs><g id="Ebene_2" data-name="Ebene 2"><g id="Ebene_1-2" data-name="Ebene 1"><path class="cls-1" d="M406.59,168.36H359.45a23,23,0,0,0-23,23v72a40.21,40.21,0,0,1-40.21,40.21h-58V168.36L238.26,0C331.08,0,406.59,75.55,406.59,168.36Z"/><path class="cls-1" d="M105.8,49.09a49.09,49.09,0,1,1,49.08,49.09A49.08,49.08,0,0,1,105.8,49.09Z"/><path class="cls-1" d="M238.3,373.76h98.11c0,92.74-75.38,168.2-168.09,168.33h-.23C75.38,542,0,466.5,0,373.76,0,303,43.92,242.26,105.93,217.43V167.09a40.54,40.54,0,0,1,40.55-40.55H204V279.37a24.17,24.17,0,0,1-24.18,24.18H168.32A70.22,70.22,0,0,0,168.09,444h.23A70.31,70.31,0,0,0,238.3,373.76Z"/><path class="cls-1" d="M576.52,394.56q-28.92-7.59-47-20.24L553,321.54a152.09,152.09,0,0,0,39.41,18.08,149.92,149.92,0,0,0,44.1,6.86q41.21,0,41.21-20.6,0-10.85-11.75-16.09t-37.78-11q-28.56-6.15-47.71-13.2A80.32,80.32,0,0,1,547.6,263q-13.74-15.54-13.73-41.93a72.55,72.55,0,0,1,12.65-41.75q12.65-18.62,37.77-29.46T645.93,139a217.78,217.78,0,0,1,49.16,5.6Q719.3,150.2,737.74,161l-22,53.14q-36.15-19.52-70.13-19.52-21.33,0-31.08,6.33t-9.76,16.44q0,10.13,11.56,15.19t37.24,10.48q28.9,6.15,47.89,13.19a82.73,82.73,0,0,1,32.9,22.42q13.91,15.36,13.92,41.75a71.15,71.15,0,0,1-12.66,41.21q-12.65,18.43-38,29.46t-61.45,11A234,234,0,0,1,576.52,394.56Z"/><path class="cls-1" d="M822,387.33q-25.31-13-39.58-36.15T768.1,298.77q0-28.92,14.28-52.06a97.2,97.2,0,0,1,39.4-36q25.13-12.84,56.94-12.84t57.11,12.84q25.3,12.83,39.4,35.78t14.1,52.24q0,29.28-14.1,52.41t-39.4,36.15q-25.3,13-57.11,13Q847.27,400.34,822,387.33Zm86.4-54q11.57-12.46,11.57-34.52,0-21.69-11.57-34T878.72,252.5q-18.09,0-29.64,12.29t-11.57,34q0,22.05,11.57,34.52t29.64,12.47Q896.78,345.76,908.36,333.29Z"/><path class="cls-1" d="M1195.55,219.6q22.23,21.69,22.23,65.43V397.09H1149.1V296.24q0-40.12-32.17-40.13-17.72,0-28.38,11.57t-10.66,34.7v94.71h-68.68V201.17h65.43v21.32a77.83,77.83,0,0,1,27.47-18.25,93.19,93.19,0,0,1,34.7-6.33Q1173.32,197.91,1195.55,219.6Z"/><path class="cls-1" d="M1462.51,201.17V361.3q0,54.58-29.64,81.88t-85.31,27.29a217.35,217.35,0,0,1-54.22-6.5q-25.32-6.51-43-19.16l24.94-48.08q11.92,9.76,30.18,15.36a122,122,0,0,0,36,5.61q27.12,0,39.77-11.93t12.65-35.43v-6.51Q1373.94,387,1335.63,387a100.57,100.57,0,0,1-48.08-11.75A89.37,89.37,0,0,1,1252.49,342q-13-21.51-13-49.71,0-27.83,13-49.34a89.47,89.47,0,0,1,35.06-33.26,100.69,100.69,0,0,1,48.08-11.75q41.92,0,61.45,27.11V201.17Zm-80.07,120q12.11-11.21,12.11-28.92t-11.93-28.74q-11.92-11-30.72-11t-30.91,11q-12.12,11-12.11,28.74t12.29,28.92q12.28,11.2,30.73,11.21T1382.44,321.18Z"/><path class="cls-1" d="M1779.17,426.37a82.81,82.81,0,0,1-30.91,23.68,97.08,97.08,0,0,1-39.94,8.13q-21,0-38-5.42t-34.16-17.89Q1619,422.39,1597.7,400q-32.9-5.42-58.56-23.49a126.07,126.07,0,0,1-39.94-45.55q-14.29-27.46-14.28-60.37,0-37.59,18.25-67.6t50.25-47q32-17,72.12-17t72.11,17q32,17,50.25,47t18.25,67.6q0,42.66-23.31,75.37t-62.72,46.81q7.23,8,14.28,11.21a36.16,36.16,0,0,0,15.36,3.25q21.33,0,38.32-17.71Zm-212.92-118a64.91,64.91,0,0,0,24.58,25.48,71.14,71.14,0,0,0,69.41,0,65,65,0,0,0,24.58-25.48q9-16.46,9-37.78t-9-37.77a65.07,65.07,0,0,0-24.58-25.49,71.14,71.14,0,0,0-69.41,0,65,65,0,0,0-24.58,25.49q-9,16.45-9,37.77T1566.25,308.35Z"/><path class="cls-1" d="M1994.61,201.17V397.09h-65.43v-21a70.47,70.47,0,0,1-26,18.07,85,85,0,0,1-32.17,6.14q-37.95,0-60.55-22.41t-22.59-67.23V201.17h68.68v98.32q0,22,8.32,32.17t24.21,10.12q16.28,0,26.57-11.38t10.31-34.89V201.17Z"/><path class="cls-1" d="M2291.38,345.76v51.33H2110.64V356.61l90.73-104.47h-88.2v-51h174.59v40.12L2197,345.76Z"/><path class="cls-1" d="M2023.19,179a35.07,35.07,0,0,1,0-52.06q11.57-10.47,30.36-10.48t30.37,9.94q11.57,9.94,11.56,25.49,0,16.26-11.56,26.93t-30.37,10.66Q2034.76,189.43,2023.19,179Z"/><path class="cls-1" d="M2083.79,209.7q-11.58,5.36-30.37,5.35t-30.36-5.26l-1.25-.6a1.56,1.56,0,0,0-2.26,1.38V397.09h68.68l-.11-187a1.54,1.54,0,0,0-2.27-1.37C2085.2,209,2084.51,209.36,2083.79,209.7Z"/></g></g></svg>