<svg xmlns="http://www.w3.org/2000/svg" viewBox="0 0 406.59 542.09"><defs><style>.cls-1{fill:#4e4eff;}.cls-2{fill:#223;}</style></defs><g id="Ebene_2" data-name="Ebene 2"><g id="Ebene_1-2" data-name="Ebene 1"><path class="cls-1" d="M406.59,168.36H359.45a23,23,0,0,0-23,23v72a40.21,40.21,0,0,1-40.21,40.21h-58V168.36L238.26,0C331.08,0,406.59,75.55,406.59,168.36Z"/><path class="cls-2" d="M105.8,49.09a49.09,49.09,0,1,1,49.08,49.09A49.08,49.08,0,0,1,105.8,49.09Z"/><path class="cls-2" d="M238.3,373.76h98.11c0,92.74-75.38,168.2-168.09,168.33h-.23C75.38,542,0,466.5,0,373.76,0,303,43.92,242.26,105.93,217.43V167.09a40.54,40.54,0,0,1,40.55-40.55H204V279.37a24.17,24.17,0,0,1-24.18,24.18H168.32A70.22,70.22,0,0,0,168.09,444h.23A70.31,70.31,0,0,0,238.3,373.76Z"/></g></g></svg>